<?xml version="1.0" encoding="UTF-8" standalone="no"?>
<!-- Created with Inkscape (http://www.inkscape.org/) -->

<svg
   width="101.90149"
   height="82.051277"
   viewBox="0 0 26.961436 21.709399"
   version="1.1"
   id="svg1"
   xml:space="preserve"
   xmlns="http://www.w3.org/2000/svg"
   xmlns:svg="http://www.w3.org/2000/svg"><defs
     id="defs1" /><g
     id="layer2"
     style="display:inline"
     transform="translate(-354.36343,-468.46372)"><path
       style="opacity:1;fill:#fafade;fill-opacity:1;stroke:none;stroke-width:5.2932;stroke-linecap:round;stroke-linejoin:round;stroke-dasharray:none;stroke-opacity:1;paint-order:fill markers stroke"
       id="path131"
       d="m 362.85359,473.59098 c 0.38714,0.1567 0.82121,0.14132 1.23056,0.11852 0.20153,-0.0112 0.40525,-0.0155 0.60289,-0.0564 0.0853,-0.0177 0.28249,-0.0451 0.23336,-0.1169 -0.54086,-0.79046 -1.21959,-1.47719 -1.82938,-2.21575 -1.11812,-0.21184 -0.86093,-0.29451 -2.18685,0.2364 -0.46512,0.18624 -0.93233,0.38986 -1.33947,0.68182 -0.97093,0.69617 -2.03221,2.08835 -0.69892,3.43882 0.83723,0.84803 2.24789,0.79206 3.37181,1.1881 0.83628,-0.0521 1.68169,-0.0222 2.5088,-0.15611 1.5689,-0.25398 3.2659,-0.8422 4.66026,-1.61689 0.52898,-0.29391 1.06306,-0.61258 1.4806,-1.05062 0.23014,-0.24144 0.57747,-0.63848 0.3966,-0.91876 -0.66084,-1.02413 -1.75279,-1.6941 -2.62921,-2.54117 -0.82594,0.13094 -1.67919,0.14477 -2.47782,0.39281 -2.4474,0.76011 -4.71054,2.07039 -6.7344,3.61998 -1.56122,1.19537 -3.58215,3.09085 -4.56434,4.89951 -0.30382,0.55946 -0.34313,1.22616 -0.51466,1.83926 0.26135,0.78907 0.0486,1.97993 0.78401,2.36727 2.38878,1.25805 5.58421,0.19386 7.80765,-0.70141 2.49553,-1.0048 5.36646,-2.62467 7.61263,-4.07645 1.13832,-0.73575 2.21287,-1.56569 3.3193,-2.34854 1.34543,-1.20902 2.78861,-2.2406 3.69723,-3.84257 0.16909,-0.2981 0.45829,-0.74503 0.2313,-1.00181 -0.76317,-0.86329 -1.75209,-1.60376 -2.84835,-1.95867 -1.16835,-0.37826 -4.30875,1.74084 -4.73918,1.98152 -2.73908,2.10194 -3.11133,2.18703 -5.40593,4.72216 -0.66538,0.73515 -1.30454,1.49996 -1.86088,2.32073 -0.39056,0.57624 -0.72393,1.1987 -0.96673,1.85109 -0.13922,0.374 -0.39165,0.85849 -0.16358,1.18595 0.66121,0.94939 1.72989,1.53669 2.59485,2.30501 0.61936,-0.16835 1.2551,-0.28513 1.85808,-0.5051 1.79248,-0.65385 3.4035,-1.57069 5.03462,-2.55427 2.32524,-1.40214 3.53398,-2.15309 5.49758,-3.98924 0.6202,-0.57999 1.14973,-1.24989 1.72463,-1.87484 0.28049,-0.47354 0.69128,-0.89115 0.8415,-1.42066 0.0696,-0.245 -0.0316,-0.57082 -0.23194,-0.72801 -0.95249,-0.74736 -1.91563,-1.64981 -3.10256,-1.88829 -0.82474,-0.16571 -1.63538,0.43041 -2.3992,0.7829 -2.12463,0.98046 -3.69964,2.28206 -5.57904,3.65388 -1.09177,0.77743 -2.22472,1.50007 -3.27533,2.33229 -1.96101,1.55342 -3.65101,3.10896 -5.11789,5.13344 -0.40691,0.5616 -1.70554,2.4764 -1.32577,3.52421 0.35711,0.9852 1.10925,1.77822 1.66388,2.66736 1.10864,-0.11863 2.23312,-0.13452 3.3259,-0.35591 2.2263,-0.45105 3.70576,-1.29395 5.72452,-2.31208 1.06045,-0.53482 2.137,-1.04209 3.16319,-1.64003 0.95234,-0.55491 1.8399,-1.21424 2.76468,-1.81393 0.85414,-0.55389 1.71466,-1.09786 2.572,-1.64678 0.7421,-0.58841 2.37653,-1.69709 2.92309,-2.68273 0.10554,-0.19033 0.14066,-0.49898 -0.0133,-0.65274 -0.82062,-0.81923 -1.68686,-1.67879 -2.76063,-2.11658 -0.58054,-0.23672 -3.33269,1.23249 -3.48394,1.30431 -1.53163,0.9932 -2.11176,1.24632 -3.37262,2.50725 -0.33691,0.33696 -0.64868,0.70471 -0.90573,1.10593 -0.15818,0.24689 -0.35243,0.52492 -0.32614,0.81696 0.0769,0.85517 -0.0233,1.9356 0.62469,2.49905 0.64085,0.55733 1.69042,0.16621 2.53566,0.24931 1.22646,-0.12441 2.40246,-0.49133 3.49356,-1.06026 0.10938,-0.0571 0.41386,-0.15237 0.30476,-0.20995 -2.27436,-1.20013 -0.96274,0.51665 -2.09745,-1.42922 -0.18013,0.0851 -0.38294,0.13319 -0.54041,0.25526 -0.24285,0.18824 -0.44417,0.42635 -0.64208,0.66138 -0.32047,0.38053 -0.68877,0.88006 -0.79526,1.38945 -0.0491,0.2342 -0.19015,0.55166 -0.0176,0.71757 0.75014,0.72183 1.72328,1.16849 2.58493,1.75274 0.46965,-0.10045 0.95165,-0.15459 1.4089,-0.30144 0.90112,-0.2894 1.71315,-0.73822 2.45509,-1.32023 0.26462,-0.20756 0.55803,-0.40936 0.72577,-0.70084 0.0884,-0.15362 0.11812,-0.41637 -0.0166,-0.53146 -0.87399,-0.74646 -1.90688,-1.28382 -2.86031,-1.92571 -0.48003,0.18088 -0.9829,0.31009 -1.44011,0.54269 -1.23027,0.6259 -2.25158,1.40618 -3.20033,2.40827 -0.53871,0.56898 -1.4248,1.69917 -1.60701,2.55328 -0.0756,0.35385 0.0381,0.72263 0.057,1.08393 0.9794,0.5753 1.83626,1.45028 2.9382,1.7259 0.58875,0.14727 1.17508,-0.31919 1.73331,-0.55741 1.35558,-0.57853 2.26489,-1.22136 3.40058,-2.14846 0.47459,-0.38741 0.93857,-0.79083 1.36521,-1.23051 0.32655,-0.33649 0.59182,-0.72744 0.8877,-1.09115 0.12976,-0.26238 0.31796,-0.50321 0.38927,-0.78707 0.0315,-0.12535 0.002,-0.29238 -0.0973,-0.37532 -0.75758,-0.63388 -1.60719,-1.14883 -2.41078,-1.72324 -0.11222,0.1726 2.32876,1.75953 2.44099,1.58693 v 0 c -0.59966,-0.564 -1.50075,-2.28222 -2.73057,-2.0636 -0.32538,0.0579 -0.62945,0.20163 -0.94419,0.30242 -0.42824,0.23407 -0.87534,0.43653 -1.28471,0.70219 -0.50589,0.32831 -0.98341,0.69944 -1.45473,1.07569 -0.89212,0.71217 -1.88612,1.56537 -2.57762,2.49148 -0.20914,0.28008 -0.63533,0.61111 -0.48809,0.92814 0.39873,0.85862 1.26638,1.40752 1.89957,2.11129 0.59531,0.50251 0.29655,0.43949 1.28612,-0.2606 0.94302,-0.66717 1.78468,-1.43023 2.56673,-2.28078 0.4016,-0.43678 0.78624,-0.89127 1.13401,-1.37199 0.27457,-0.37952 0.4854,-0.80129 0.72809,-1.20194 -0.60507,-0.92161 -1.12209,-1.90744 -1.81515,-2.76479 -0.37378,-0.46238 -1.28305,0.0892 -1.51834,0.20565 -0.68406,0.33837 -1.52099,0.8675 -2.05072,1.42905 -0.18345,0.1945 -0.28546,0.45216 -0.42822,0.67822 0.60206,0.66086 1.20113,1.32446 1.80617,1.98261 0.0598,0.0649 0.1038,0.21342 0.18781,0.18639 0.21796,-0.0701 0.38079,-0.25937 0.54241,-0.4216 0.4684,-0.47014 0.92857,-1.11668 1.19005,-1.72524 0.15917,-0.37046 0.24,-0.76983 0.35999,-1.15478 -0.10045,-0.63191 0.11131,-1.40683 -0.30139,-1.89581 -0.46811,-0.55461 -1.3112,-0.63909 -2.00839,-0.84078 -0.33357,-0.0965 -0.69501,-0.0719 -1.04093,-0.0414 -0.8324,0.0733 -1.64452,0.34621 -2.38277,0.72805 -0.33387,0.17271 -0.63044,0.40948 -0.94566,0.61421 2.52784,1.98565 -1.03736,-1.16401 1.28679,3.10564 0.14158,0.26013 0.59726,-0.0281 0.88152,-0.11135 0.48403,-0.14163 0.95485,-0.33318 1.40627,-0.558 1.68758,-0.84054 2.00087,-1.21134 3.52452,-2.39366 0.12327,-0.12942 2.51272,-2.4409 2.40479,-3.00682 -0.22073,-1.15752 -1.01291,-2.1649 -1.79762,-3.04401 -0.25747,-0.28844 -0.74811,-0.25109 -1.13464,-0.24096 -1.58865,0.0415 -2.90213,0.70773 -4.36777,1.25393 -1.21836,0.64564 -4.64791,2.43326 -5.77718,3.15565 -0.97839,0.62584 -1.89424,1.34475 -2.82687,2.03692 -0.61807,0.45872 -3.73325,2.69165 -4.15868,3.65246 -0.16392,0.37019 0.29849,0.75269 0.44775,1.12904 0.29037,0.88302 0.27899,1.93256 0.87114,2.64911 0.25643,0.31027 0.82086,-0.006 1.19889,-0.14432 0.74374,-0.27189 1.44414,-0.65891 2.12124,-1.06948 3.176,-1.92596 5.89761,-4.47486 8.42984,-7.16797 1.56918,-1.52206 3.19401,-2.91487 4.40349,-4.76458 0.43083,-0.65889 1.14538,-1.36081 1.00771,-2.13594 -0.19211,-1.08159 -1.33492,-3.36448 -2.94251,-3.19503 -0.61383,0.0647 -1.18422,0.34849 -1.77633,0.52274 -0.8088,0.41191 -1.65079,0.76431 -2.42642,1.23573 -2.30391,1.40034 -3.40672,2.38726 -5.32487,4.2983 -1.00542,1.0017 -2.69392,2.77982 -3.39242,4.14057 -0.18328,0.35706 -0.16866,0.78478 -0.25297,1.17715 0.75158,0.81902 1.31474,1.8637 2.25474,2.45706 0.35122,0.22166 0.83372,-0.10635 1.21733,-0.26545 0.67045,-0.27809 1.31218,-0.63176 1.91615,-1.03427 0.83408,-0.55591 1.62019,-1.18364 2.38461,-1.832 2.6621,-2.25797 2.60343,-2.41124 4.86973,-5.07971 0.13774,-0.22189 2.64769,-3.86472 2.36231,-4.70745 -0.38124,-1.12575 -1.42184,-1.95473 -2.38608,-2.64958 -0.39032,-0.28129 -0.96175,-0.16506 -1.43939,-0.10715 -2.20763,0.26772 -3.48453,1.05247 -5.56697,1.96614 -1.19687,0.71457 -2.43095,1.37017 -3.5906,2.14363 -2.123,1.41607 -4.59239,3.36564 -6.40704,5.19143 -0.70617,0.7105 -1.80143,1.29615 -1.94982,2.28686 -0.21634,1.44441 2.62852,2.24981 1.77103,4.00775 0.54261,-0.1566 1.11829,-0.22625 1.62785,-0.46978 1.71709,-0.82066 3.88384,-2.48254 5.26378,-3.67773 1.66197,-1.43945 3.37505,-3.15299 4.65626,-4.96318 0.39692,-0.56083 0.66358,-1.20333 0.99539,-1.80498 -0.55997,-1.02126 -0.94269,-2.16206 -1.67988,-3.06377 -0.46497,-0.56872 -2.53079,0.0819 -2.70455,0.12936 -1.37043,0.37342 -2.86707,0.93035 -4.12629,1.58901 -0.52509,0.27465 -1.0032,0.63103 -1.50482,0.94654 1.23741,2.02885 0.94046,0.90863 0.80323,3.38267 0.16071,0.2942 0.63334,-0.22719 0.92898,-0.38522 0.7582,-0.40528 1.66119,-1.0189 2.2438,-1.66489 0.29196,-0.32368 0.49982,-0.71427 0.74974,-1.07143 -0.50256,-0.85185 -0.90009,-1.77513 -1.50766,-2.55557 -0.10988,-0.14116 -0.35396,-0.0735 -0.53263,-0.0652 -0.18926,0.008 -0.37238,0.0709 -0.5565,0.11551 -0.42182,0.10213 -0.83401,0.23719 -1.20493,0.46724 -0.18026,0.0838 1.0049,2.63303 1.18516,2.54922 z" /></g></svg>
