<?xml version="1.0" encoding="UTF-8" standalone="no"?>
<!-- Created with Inkscape (http://www.inkscape.org/) -->

<svg
   width="179.01196"
   height="64.99366"
   viewBox="0 0 47.363582 17.196238"
   version="1.1"
   id="svg1"
   xml:space="preserve"
   xmlns="http://www.w3.org/2000/svg"
   xmlns:svg="http://www.w3.org/2000/svg"><defs
     id="defs1" /><g
     id="layer2"
     style="display:inline"
     transform="translate(-344.35431,-502.80906)"><g
       id="g139"><path
         style="opacity:1;fill:#fafade;fill-opacity:1;stroke:none;stroke-width:7.14375;stroke-linecap:round;stroke-linejoin:round;stroke-dasharray:none;stroke-opacity:1;paint-order:fill markers stroke"
         id="path139"
         d="m 353.67602,519.33901 c 8.47894,0.44537 16.9692,0.54186 25.45774,0.62725 2.13995,0.013 4.27991,0.026 6.41985,0.0389 6.05888,0.0367 6.11082,-8.5318 0.0519,-8.56855 v 0 c -2.12859,-0.0129 -4.25721,-0.0258 -6.38583,-0.0387 -8.39307,-0.084 -16.78787,-0.17834 -25.17145,-0.61956 -6.05327,-0.26323 -6.42552,8.29737 -0.37225,8.5606 z" /><path
         style="opacity:1;fill:#fafade;fill-opacity:1;stroke:none;stroke-width:7.14375;stroke-linecap:round;stroke-linejoin:round;stroke-dasharray:none;stroke-opacity:1;paint-order:fill markers stroke"
         id="path138"
         d="m 349.67172,513.75458 c 0.4288,-0.0666 0.8559,-0.14518 1.2864,-0.19974 4.0822,-0.51725 8.20617,-0.78512 12.31062,-1.03305 5.64962,-0.34127 9.72436,-0.50571 15.4332,-0.76725 2.88636,-0.12634 5.7727,-0.25265 8.65904,-0.37897 6.05319,-0.26492 5.67854,-8.82543 -0.37467,-8.5605 v 0 c -2.89221,0.12659 -5.78445,0.25319 -8.67666,0.37977 -5.7685,0.26448 -9.91455,0.43187 -15.62836,0.77839 -4.35211,0.26395 -8.72087,0.55516 -13.04757,1.1159 -0.50489,0.0655 -1.00584,0.15835 -1.50877,0.23752 -5.95944,1.09376 -4.41266,9.5217 1.54677,8.42793 z" /></g></g></svg>
