<svg xmlns="http://www.w3.org/2000/svg" xml:space="preserve" width="100.094" height="77.412"
  viewBox="0 0 26.483 20.482">
  <g class="author-cloud__arrow" style="fill:#e4e4cb;fill-opacity:1">
    <path
      d="M635.67-150.743c.21.26.509.429.731.675.124.136.23.289.325.446.089.145.196.29.225.459.065.366-.173.74-.31 1.043l-.342.574c-.007.011.566.392.573.38l.524-.661c.104-.28.267-.546.313-.842.154-.974-.515-1.92-1.355-2.341-.169-.085-.359-.118-.538-.177a4.223 4.223 0 0 0-.147.444zM634.95-147.146c-.08.262-.163.512-.206.785-.026.158-.033.319-.042.479-.01.185-.018.476.014.672.013.08.04.157.06.236.237.142.443.359.711.425.176.044.359-.062.532-.118.814-.263.59-.26 1.35-.728.204-.126.42-.234.63-.35a4.757 4.757 0 0 0-.215-.504c-.239.049-.476.109-.717.148-.877.142-.732.004-1.5.332-.075.032-.223.06-.203.141.045.183.233.296.35.444.004-.101-.004.05.026-.249.012-.128.065-.732.068-.824.003-.154-.008-.309-.014-.463-.004-.12-.01-.239-.016-.358 0-.016-.828-.084-.829-.068z"
      style="opacity:1;fill:#e4e4cb;fill-opacity:1;stroke:none;stroke-width:7.14375;stroke-linecap:round;stroke-linejoin:round;stroke-dasharray:none;stroke-opacity:1;paint-order:fill markers stroke"
      transform="translate(-611.516 165.02)" />
  </g>
  <g class="blob" style="display:inline">
    <path
      d="M622.888-156.81c-.453-.136-.917-.282-1.392-.313-.35-.024-.71-.074-1.054-.007-.596.115-1.229.213-1.735.547-.66.436-1.11 1.13-1.664 1.694-.174.617-.481 1.21-.522 1.85-.076 1.178.372 2.436 1.194 3.287.417.431.893.908 1.483 1.022 1.06.206 2.337.491 3.237-.106 1.137-.755 1.443-2.318 2.164-3.477-.102-.54-.15-1.092-.306-1.619a3.038 3.038 0 0 0-.417-.831c-.234-.345-.48-.695-.8-.963-1.433-1.196-3.218-1.606-5.1-.21-.94.698-.93 2.149-1.395 3.223.347 5.34 7.9 4.85 7.553-.491-.467 1.052-.47 2.478-1.4 3.156-1.851 1.347-3.51.988-4.864-.183-.218-.19-.365-.45-.518-.695-.28-.45-.262-1.152-.319-1.6.719-1.048 1.07-2.486 2.155-3.147.86-.523 2.034-.209 3.018-.002.473.1.833.517 1.152.88.563.637.82 1.585.702 2.42-.064.454-.315.86-.473 1.29-.462.405-.852.91-1.385 1.215-.369.212-.82.231-1.24.29-.165.023-.332-.024-.496-.045-.03-.004-.058-.018-.085-.03-.003-.001-.003-.01 0-.009.032.007.063.02.095.029 5.073 1.705 7.485-5.469 2.412-7.174z"
      style="opacity:1;fill:#e4e4cb;fill-opacity:1;stroke:none;stroke-width:7.14375;stroke-linecap:round;stroke-linejoin:round;stroke-dasharray:none;stroke-opacity:1;paint-order:fill markers stroke"
      transform="translate(-616.513 160.347)" />
  </g>
  <g class="blob" style="display:inline">
    <path
      d="M633.994-149.174c.341-.709.617-1.157.599-2.071-.013-.67-.161-1.34-.376-1.975a3.335 3.335 0 0 0-.691-1.18 7.992 7.992 0 0 0-1.665-1.381c-.466-.29-1.022-.4-1.534-.6-1.296-.207-1.714-.374-3.032-.184-.51.074-1.034.153-1.496.379-1.66.81-2.77 1.777-3.098 3.765-.143.87.243 1.746.364 2.62.472.613.84 1.322 1.415 1.84.488.437 1.102.724 1.71.966 1.49.595 3.472.519 4.934-.124.53-.233.993-.597 1.49-.896.439-.544 1.055-.983 1.316-1.631.353-.875.587-1.856.467-2.793-.221-1.734-1.34-2.982-2.699-3.886-1.316-.876-1.991-.854-3.504-1.155-.65.047-1.316-.004-1.952.14-1.49.34-2.816 1.12-3.65 2.464-.443.712-.68 1.558-.78 2.39-.084.686.162 1.373.243 2.06 1.323 5.185 8.657 3.314 7.334-1.872-.025.27.017.555-.075.81-.334.922-.658 1.268-1.54 1.64-.125.052-.275.023-.408-.006-.071-.016-.12-.084-.18-.125.004-.04 0-.081.015-.117.015-.035.08-.05.073-.088-.174-1.08-.672 1.015-.424-1.684.135-1.462.425-1.5 1.286-2.249.15-.044.296-.111.452-.133.087-.012.351.116.402.149.065.04.12.095.177.147.691.64.395.335.966 1.444-.007.54.149 1.107-.02 1.62-.184.56-.565 1.059-.994 1.465-.27.257-.672.33-1.026.451-.049.017-.111-.012-.146-.05-.03-.032.087-.138.091-.142-.222-.302-.497-.564-.701-.878a1.22 1.22 0 0 1-.184-.458c-.071-.423-.14-.854-.11-1.282.042-.575.2-.812.427-1.227-2.714 4.613 3.81 8.45 6.524 3.837z"
      style="opacity:1;fill:#e4e4cb;fill-opacity:1;stroke:none;stroke-width:7.14375;stroke-linecap:round;stroke-linejoin:round;stroke-dasharray:none;stroke-opacity:1;paint-order:fill markers stroke"
      transform="translate(-616.513 160.347)" />
  </g>
  <g class="blob" style="display:inline">
    <path
      d="M628.63-148.146c-.025-.33.01-.67-.077-.99-.146-.54-.334-1.077-.612-1.563-.402-.702-1.251-1.481-1.976-1.846-1.217-.611-1.495-.53-2.73-.635-1.55.244-2.451.176-3.617 1.826-1.056 1.493-.994 3.32-.082 4.807.862 1.405 1.64 1.523 2.971 2.075.946.132 1.632.326 2.587.08.57-.147 1.142-.34 1.642-.65 1.428-.888 2.26-2.427 2.044-4.232-.117-.99-.974-1.738-1.461-2.606-.656-.324-1.27-.756-1.97-.971-.502-.155-1.05-.175-1.572-.119-.612.066-1.232.203-1.782.48-1.25.628-2.224 1.733-2.511 3.142-.152.744.069 1.517.103 2.276 1.944 2.739.72 1.801 3.506 3.013 5.221 1.173 6.88-6.211 1.659-7.385 1.732 1.005.948.288 2.133 2.367-.025.542.08 1.107-.075 1.628-.273.92-.948 1.577-1.818 1.909-.31.118-.654.138-.986.135-.727-.005-1.22-.516-1.796-.891-.317-.713-.934-1.36-.952-2.14-.02-.884.429-1.735.848-2.513.17-.317.536-.493.857-.654.43-.217.9-.333 1.368-.237.121.025.235.079.352.118.637.385 1.005.524 1.386 1.353.222.481.408 1.027.345 1.553-.088.728-.312 1.494-.782 2.056-.996 1.192-1.45 1.109-2.5 1.148-.47-.113-.543-.098-1.032-.425a1.665 1.665 0 0 1-.362-.341c-.413-.51-.526-.885-.66-1.57-.036-.182-.005-.37-.008-.556-.253 5.346 7.307 5.704 7.56.358z"
      style="opacity:1;fill:#e4e4cb;fill-opacity:1;stroke:none;stroke-width:7.14375;stroke-linecap:round;stroke-linejoin:round;stroke-dasharray:none;stroke-opacity:1;paint-order:fill markers stroke"
      transform="translate(-616.513 160.347)" />
  </g>
  <g class="blob" style="display:inline">
    <path
      d="M636.896-146.034c.466-.275 1.31-.725 1.55-1.173.996-1.85 1.625-3.211.562-5.103-.938-1.668-1.653-1.813-3.122-2.558-.727-.11-1.447-.3-2.182-.331-.54-.023-1.081.06-1.61.166-2.004.401-3.652 1.373-4.589 3.297-.32.658-.309 1.43-.464 2.144.16.734.105 1.55.477 2.2.502.88 1.265 1.606 2.058 2.236.5.397 1.135.602 1.746.788 1.049.321 2.459.445 3.564.298.577-.076 1.132-.268 1.699-.402.583-.336 1.247-.56 1.749-1.008 1.205-1.078 1.951-2.462 1.918-4.12-.017-.823-.263-1.645-.6-2.398-.59-1.32-1.432-1.836-2.47-2.69-.525-.26-1.015-.608-1.574-.782-1.261-.393-2.53-.475-3.818-.212-1.465.3-2.644.891-3.635 2.1-.502.614-.71 1.418-1.065 2.127-.103 1.756-.432 2.698.53 4.306.87 1.454 2.039 2.371 3.584 2.964.64.245 1.319.413 2.002.472.708.061 1.42-.078 2.13-.116 5.3-.743 4.249-8.239-1.051-7.496.07.051.186.07.208.154.015.056-.099.062-.141.102-.035.034-.099.07-.089.117.053.246.215.46.264.708.09.452-.107.776-.258 1.187-.603.665-.479.704-1.397.968-.034.01-.054-.06-.046-.095.01-.044.113-.061.091-.101-.255-.467-.295-.032-.247-.325.267-.035.053.032.025-.407-.021-.333-.072-.676 0-1.002.163-.74.547-1.205 1.186-1.581.157-.092.356-.082.533-.123.064.223.044.031-.3.173-.046.02-.075.067-.11.105-.027.03-.09.06-.073.098.81 1.877.65.544.665 2.228-.45 1.043-.26.965-1.308 1.688-.065.044-.18.062-.236.007-.04-.04.074-.087.121-.117.31-.2.4.014-.227-.353-.313-.385-.648-.779-.814-1.253-.488-1.392.166-2.111.947-3.395.09-.149.315-.224.482-.287-4.804 2.358-1.47 9.152 3.335 6.794z"
      style="opacity:1;fill:#e4e4cb;fill-opacity:1;stroke:none;stroke-width:7.14375;stroke-linecap:round;stroke-linejoin:round;stroke-dasharray:none;stroke-opacity:1;paint-order:fill markers stroke"
      transform="translate(-616.513 160.347)" />
  </g>
  <g class="blob" style="display:inline">
    <path
      d="M638.325-152.862c.168-.44.335-.828.377-1.323.043-.52.066-1.05-.02-1.565-.174-1.034-.663-1.979-1.362-2.751-.337-.372-.767-.646-1.15-.97-.54-.231-1.053-.539-1.62-.694-1.591-.434-3.425-.079-4.742.913-.467.351-.92.756-1.223 1.255-.387.638-.537 1.393-.805 2.09.066.717-.057 1.48.199 2.154.302.798.816 1.528 1.423 2.13.896.889 2.367 1.35 3.585 1.483 1.48.162 1.878-.098 3.29-.493 1.825-1.477 2.658-1.565 2.837-4.252.053-.793-.362-1.548-.543-2.322-2.124-4.912-9.071-1.909-6.947 3.004-.02-.402-.164-.816-.06-1.205.448-1.69.758-1.56 2.066-2.316.13.003.263-.018.39.008.045.01.069.062.102.093.058.054.118.107.174.164.148.152.332.28.438.464.728 1.273.558 1.114.49 2.458-.211.381-.365.8-.632 1.144-.253.326-.766.57-1.172.627a2.215 2.215 0 0 1-.621-.007c-.417-.06-.657-.291-1.004-.522-.096-.12-.209-.227-.288-.359-.379-.626-.377-1.196-.25-1.9.02-.11.075-.21.115-.314.004-.01-.005.022-.007.033-2.102 4.922 4.858 7.895 6.96 2.973z"
      style="opacity:1;fill:#e4e4cb;fill-opacity:1;stroke:none;stroke-width:7.14375;stroke-linecap:round;stroke-linejoin:round;stroke-dasharray:none;stroke-opacity:1;paint-order:fill markers stroke"
      transform="translate(-616.513 160.347)" />
  </g>
</svg>