<svg xmlns="http://www.w3.org/2000/svg" xml:space="preserve" width="707.52" height="34.619" viewBox="0 0 187.198 9.16">
  <path
    d="M18.877-185.064c.754.49 1.4-.202 2.106-.214 3.555-.06 7.157-.206 10.712.007.77.046 1.503.223 2.27.287 1.38.115 2.784.2 4.169.274 1.677.09 3.286-.064 4.96-.08 3.756-.036 7.506.19 11.267.107 1.568-.035 3.133-.137 4.703-.154 2.839-.03 5.687.031 8.524-.06 4.144-.133 8.26-.734 12.407-.836 2.755-.067 5.518.093 8.267.214 2.783.124 5.604-.008 8.39.027 2.44.03 4.88.31 7.313.461 3.304.205 6.642.317 9.951.408 2.209.061 4.407 0 6.614.007 3.557.012 7.123.037 10.68-.046 1.713-.04 3.411-.184 5.126-.194 1.998-.013 3.963-.202 5.956-.295 2.764-.128 5.523-.176 8.288-.254 1.4-.039 2.8-.147 4.2-.147 2.166 0 4.329.209 6.491.261.456.011.985-.196 1.438-.24 1.4-.139 2.8-.29 4.2-.422 2.375-.223 4.797-.25 7.18-.394 1.56-.094 3.117-.241 4.683-.26 1.567-.02 3.135.06 4.703.046.773-.007 1.567-.057 2.342-.007.126.008.222.128.339.134.486.026.968.136 1.458.147 1.929.044 3.834.194 5.761.32 1.529.1 3.04.22 4.56.375.197.02.935-.023 1.037.107.043.054-.459.03-.914.026"
    style="fill:none;fill-opacity:1;stroke:#000;stroke-width:7.14375;stroke-linecap:round;stroke-linejoin:round;stroke-dasharray:none;stroke-opacity:1;paint-order:fill markers stroke"
    transform="translate(-15.306 190.183)" />
</svg>