<?xml version="1.0" encoding="UTF-8" standalone="no"?>
<!-- Created with Inkscape (http://www.inkscape.org/) -->

<svg width="462.88818" height="34.995365" viewBox="0 0 122.4725 9.2591896" version="1.1" id="svg1" xml:space="preserve"
  xmlns="http://www.w3.org/2000/svg" xmlns:svg="http://www.w3.org/2000/svg">
  <defs id="defs1" />
  <g id="layer1" style="display:inline" transform="translate(-18.284067,193.9994)">
    <path
      style="fill:none;fill-opacity:1;stroke:currentColor;stroke-width:7.21701;stroke-linecap:round;stroke-dasharray:none;stroke-opacity:1;paint-order:fill markers stroke"
      d="m 21.892544,-188.93671 c 4.22583,0.84459 0.42014,0.21866 2.90789,0.39622 0.31065,0.0222 0.61372,0.12056 0.92496,0.13208 1.629,0.0603 3.26304,0.0957 4.89034,0 0.75288,-0.0443 1.49511,-0.20635 2.24706,-0.26415 5.54654,-0.42632 0.42847,0.079 5.28701,-0.13207 0.22442,-0.01 0.43663,-0.11807 0.66082,-0.13208 1.49547,-0.0934 3.1244,-0.0682 4.6262,0 1.62884,0.074 3.26141,0.35923 4.89034,0.39622 4.17505,0.0948 8.25526,-0.30565 12.42443,-0.39622 7.75089,-0.16836 15.51093,0.13174 23.26259,0 4.49987,-0.0765 8.98623,-0.49462 13.48147,-0.66127 4.363086,-0.16175 8.721536,-0.11634 13.085236,-0.26415 1.41192,-0.0478 2.81786,-0.22264 4.22997,-0.26414 6.3419,0 -1.45143,0.0467 4.62576,-0.13253 5.4574,-0.16096 10.93354,0.19472 16.38977,0 0.18156,-0.006 0.35251,-0.0881 0.52877,-0.13207 0.2643,0 0.52859,0 0.79288,0"
      id="path108" />
  </g>
</svg>