<?xml version="1.0" encoding="UTF-8" standalone="no"?>
<!-- Created with Inkscape (http://www.inkscape.org/) -->

<svg
   width="539.08893"
   height="459.95804"
   viewBox="0 0 142.63394 121.69722"
   version="1.1"
   id="svg1"
   xml:space="preserve"
   xmlns="http://www.w3.org/2000/svg"
   xmlns:svg="http://www.w3.org/2000/svg"><defs
     id="defs1" /><g
     id="layer1"
     style="display:inline"
     transform="translate(-195.65377,-85.189407)"><path
       style="opacity:1;fill:#fcfcf1;fill-opacity:1;stroke-width:0.119012;stroke-linecap:square;paint-order:fill markers stroke"
       id="path153"
       d="m 234.38542,120.57666 c 1.37485,-0.86843 0.88409,-0.66743 3.19917,-1.24565 6.36935,-1.59084 7.06349,-1.73281 14.47912,-1.95416 8.36505,-0.24969 14.26839,0.23338 22.71014,0.66095 7.10041,0.83797 16.76842,1.8635 23.80974,3.15036 3.50696,0.64093 7.05154,1.23976 10.41887,2.32594 2.43359,0.78496 4.74612,1.91285 6.85974,3.24744 1.25771,0.79419 3.07524,4.42791 3.11492,3.05086 0.30295,-10.51157 -1.53037,-20.9855 -2.29564,-31.47824 -0.26295,0.74836 -0.17393,1.68605 -0.78893,2.2451 -2.48692,2.2605 -13.56964,6.87097 -14.88894,7.30492 -4.19078,1.37844 -8.56313,2.29396 -12.92576,3.14419 -9.75078,1.90031 -17.41201,2.42323 -27.27794,3.39168 -11.37202,1.25162 -22.75747,2.43295 -34.2058,2.94796 -4.54104,0.20427 -8.2241,0.29194 -12.66142,0.13206 -0.86314,-0.0311 -1.72166,-0.12972 -2.58248,-0.1946 -0.17487,11.62072 -3.21443,23.49237 -0.52452,34.86209 0.59271,2.5054 5.62891,-0.92747 8.44468,-1.38498 4.42152,-0.71842 8.79779,-1.72327 13.267,-2.14278 11.19371,-1.05073 21.36305,-0.69581 32.54278,0.16451 4.78497,0.36821 9.53548,1.03405 14.30326,1.55108 3.46496,0.5363 16.15189,2.28303 20.27624,3.62965 13.32976,4.35215 14.08136,29.59529 2.12587,-29.72027 -0.30117,-1.49445 -2.01798,2.54349 -3.46358,3.33892 -3.42551,1.88483 -7.28344,3.05223 -10.92521,4.57835 -4.49811,0.88794 -8.95638,1.95667 -13.49435,2.66381 -4.72044,0.73557 -9.49523,1.16188 -14.25422,1.66019 -4.77533,0.49999 -9.55241,1.00821 -14.34647,1.33449 -8.05873,0.54843 -15.823,0.69816 -23.87794,0.37005 -2.74935,-0.11199 -5.4851,-0.412 -8.22758,-0.61801 1.78724,7.73758 -7.15821,-4.52293 -7.08315,-2.27874 0.3787,11.31839 -1.0037,23.15725 3.15008,33.85323 1.03339,2.66084 5.92522,-1.92152 8.96001,-2.66998 15.65691,-3.86156 15.52182,-3.25536 32.60799,-5.21139 6.24089,-0.27615 12.47562,-0.70534 18.72252,-0.82842 10.33973,-0.20373 22.55178,0.17913 32.95161,0.74093 7.7403,0.41814 14.67641,0.94924 22.2836,1.96098 2.3002,0.30593 4.57542,0.74713 6.86305,1.12069 12.17344,9.00874 4.679,4.4986 0.44507,-30.98271 -0.0905,-0.75829 -0.68266,1.45568 -1.32562,1.9562 -1.57393,1.22528 -3.3738,2.21294 -5.19643,3.12108 -6.56625,3.27175 -11.362,4.60299 -18.54564,7.05566 -4.63808,1.4657 -9.2195,3.08367 -13.91414,4.3971 -10.87542,3.0426 -20.98479,5.21104 -32.21587,6.93751 -5.17538,0.7956 -10.3808,1.46027 -15.60705,1.91827 -10.76667,0.94351 -14.47,0.63174 -24.78731,0.44169 -5.07257,-0.42778 -9.07615,-0.5108 -13.88747,-1.68042 -13.64895,-3.31796 -14.46214,-31.19654 -2.9531,33.58035 0.33231,1.87049 4.15733,-0.71878 6.25029,-1.00037 3.49519,-0.47027 7.00678,-0.8365 10.51021,-1.25472 5.06201,-0.24952 10.11654,-0.79303 15.18595,-0.74854 5.48735,0.0481 10.95857,0.57347 16.42279,1.02594 11.54111,0.95571 18.67822,1.87501 29.87145,3.81972 3.73786,0.64942 7.46539,1.35807 11.1577,2.19034 2.71265,0.61144 5.36319,1.42532 8.04487,2.138 1.34926,0.83521 2.9645,1.40314 4.04797,2.50567 0.50995,0.51888 0.44644,2.72942 0.41793,2.03891 -0.45908,-11.11024 0.61491,-22.39699 -1.7104,-33.31837 -0.35551,-1.66984 -3.07996,2.02632 -4.79752,2.75241 -5.53097,2.33807 -10.59151,3.10001 -16.53531,4.37594 -7.869,1.04245 -12.97078,1.91502 -21.01324,2.14855 -3.47822,0.10102 -6.96046,-0.0725 -10.43798,-0.1924 -6.25523,-0.21583 -11.45543,-0.52664 -17.5962,-1.32309 -1.98507,-0.25747 -3.94441,-0.65507 -5.91661,-0.98262 -1.01773,-0.38758 -2.03555,-0.77515 -3.05335,-1.16273 0,0 0.62385,32.84938 0.62385,32.84938 v 0 c 0.83732,-0.67243 1.67457,-1.34484 2.51189,-2.01727 1.94484,-0.41465 3.86264,-0.949 5.8346,-1.24396 6.0587,-0.90631 11.45742,-1.0064 17.62187,-1.2482 3.50542,-0.13751 7.01007,-0.31481 10.51835,-0.36801 29.49398,-0.44728 -6.45589,0.62521 21.30879,-0.30051 4.50829,-0.15503 12.17814,-0.53393 16.88496,-0.29413 1.87425,0.0955 5.21707,2.29898 5.58466,0.65155 16.2017,-72.59883 12.32881,-38.77562 0.21171,-33.77736 -1.39713,0.57631 -2.85876,1.01794 -4.28819,1.52691 -2.68676,0.37006 -5.35655,0.85712 -8.06018,1.11022 -13.62006,1.27497 -27.40826,1.01681 -40.99348,-0.46203 -5.48834,-0.59743 -10.99309,-1.22714 -16.37648,-2.35473 -5.11371,-1.07109 -10.02145,-2.816 -15.03214,-4.224 -3.38574,-1.39782 -6.93701,-2.51132 -10.15715,-4.19345 -1.52305,-0.79562 -3.63235,-4.7219 -3.93299,-3.16684 -2.10621,10.89457 -1.23953,22.08499 -1.8593,33.12747 0.69359,-0.71618 1.18435,-1.64405 2.08095,-2.14857 3.25696,-1.8329 10.72274,-3.46267 13.8191,-4.273 9.69916,-2.17466 14.71824,-3.38121 24.83171,-5.27006 5.20104,-0.97137 10.42789,-1.82923 15.64951,-2.70792 5.43085,-0.9139 10.84851,-1.90151 16.30742,-2.66975 14.43117,-2.03094 16.08177,-1.88194 30.07359,-2.76403 4.78488,-0.44676 13.80378,-1.35414 18.96628,-1.62039 1.88119,-0.097 3.76792,-0.0651 5.65187,-0.0972 1.26797,-0.0217 3.72877,1.06885 3.80391,-0.064 0.75879,-11.44325 0.10139,-22.99214 -1.52105,-34.36319 -0.16038,-1.12423 -2.06792,1.309 -3.10191,1.9635 -2.28009,0.59969 -4.53896,1.26796 -6.84008,1.79908 -7.45369,1.72029 -14.55972,2.97187 -22.21585,3.97991 -10.72021,1.41145 -22.1008,2.4495 -32.9104,2.76785 -6.23511,0.18362 -12.47693,0 -18.71543,0 -14.31472,-1.13317 -19.16966,-0.76579 -32.44553,-4.43921 -2.91657,-0.80702 -7.41153,-5.90942 -8.37463,-3.31711 -3.86933,10.41447 -1.73005,21.8953 -2.59512,32.84293 0.41547,-0.73291 0.53553,-1.67833 1.24633,-2.19873 1.42232,-1.04139 3.25581,-1.52632 4.88375,-2.28949 2.73107,-0.71054 5.43455,-1.51243 8.19336,-2.13161 7.34485,-1.6485 16.42133,-3.18911 23.83416,-4.04959 4.76538,-0.55317 9.55874,-0.89814 14.34671,-1.26276 4.76268,-0.36268 9.5276,-0.7289 14.30277,-0.91895 4.52872,-0.18025 9.06537,-0.12768 13.59802,-0.19153 3.79265,0.563 7.58676,1.1183 11.37803,1.68898 2.24078,0.33729 6.39349,3.04749 6.71793,1.03498 9.19331,-57.01901 8.5199,-35.09533 -6.10618,-31.72041 -4.9444,1.1409 -15.81581,1.86187 -20.28943,2.24866 -4.76414,0.151 -9.52552,0.49607 -14.29238,0.45304 -11.01211,-0.0994 -21.71938,-0.74092 -32.39813,-3.40338 -4.43815,-1.10654 -8.79147,-2.60738 -12.84453,-4.5678 -1.86144,-0.90034 -4.22585,-5.74343 -4.63113,-3.88499 -2.3234,10.65405 -1.07754,21.68862 -1.61631,32.53295 0.39235,-0.88384 0.42093,-1.98322 1.17704,-2.65153 2.52445,-2.23143 9.45723,-4.28822 12.21335,-5.09269 11.06808,-3.23068 22.53768,-5.17689 34.01984,-6.77315 4.47762,-0.59623 8.93952,-1.29633 13.43285,-1.78873 8.32199,-0.91194 18.57403,-1.70128 27.01022,-1.59305 3.54489,0.0455 7.06295,0.64352 10.60784,0.6903 3.42413,0.0452 7.14249,-0.71388 10.49448,-1.27536 -0.76366,-11.40013 -0.25818,-22.92563 -2.29103,-34.20041 -0.20314,-1.126706 -2.51173,0.41657 -3.78209,0.51784 -2.36154,0.18825 -4.73279,0.43091 -7.10203,0.34978 -3.51583,-0.12037 -7.00932,-0.5684 -10.50148,-0.95249 -7.97836,-0.87753 -15.89289,-2.186326 -23.8882,-2.954135 -10.5414,-1.795174 -21.24551,-3.346416 -31.43565,-6.461401 -2.07732,-0.635027 -4.03186,-1.559711 -6.09038,-2.242028 -1.21872,-0.403942 -2.94231,-0.725025 -4.28225,-0.994046 z" /></g><g
     id="layer2"
     style="display:inline"
     transform="translate(-195.65377,-85.189407)"><g
       id="g124"
       transform="matrix(1.1153771,0,0,1.1153771,-20.781762,40.194551)"><path
         style="opacity:0.616236;fill:#faff69;fill-opacity:1;stroke-width:0.217;stroke-linecap:square;paint-order:fill markers stroke"
         id="path156"
         d="m 226.96784,97.116342 c 1.88707,0.35156 3.80984,0.22255 5.70998,0.0807 1.02026,-0.0762 2.03835,-0.1791 3.05789,-0.2643 1.2959,-0.10829 2.59229,-0.21079 3.88843,-0.31619 11.0996,-0.86271 22.23098,-1.20351 33.35158,-1.68144 5.10943,-0.29536 2.7772,-0.13981 6.99799,-0.44691 9.87319,-0.72109 8.85341,-14.6839 -1.01979,-13.96281 v 0 c -3.94182,0.28908 -1.74912,0.14154 -6.57938,0.42263 -11.29873,0.48567 -22.60833,0.8336 -33.88545,1.71462 -1.32145,0.10753 -2.64316,0.21185 -3.96435,0.32258 -0.93341,0.0782 -1.86614,0.16424 -2.79939,0.24425 -0.46387,0.0398 -0.92724,0.087 -1.39196,0.11511 -0.1981,0.012 -0.39706,-0.002 -0.59537,0.005 -0.0988,0.004 -0.0882,0.008 -0.062,0.0309 -9.71252,-1.91495 -12.42067,11.82062 -2.70815,13.73558 z" /><path
         style="opacity:0.619926;fill:#faff69;fill-opacity:1;stroke-width:0.217;stroke-linecap:square;paint-order:fill markers stroke"
         id="path155"
         d="m 239.48931,109.26899 c 0.53119,0.007 1.06241,0.0285 1.59358,0.0203 1.82223,-0.0282 5.67392,-0.21802 7.15614,-0.27482 1.89753,-0.0727 3.79514,-0.14453 5.69325,-0.19954 5.44686,-0.15789 7.29628,-0.16467 12.70294,-0.24167 1.77997,0.0106 3.55994,0.0212 5.33992,0.0318 9.89933,0.0564 9.97912,-13.943348 0.0798,-13.999768 v 0 c -1.87326,-0.0102 -3.74651,-0.0204 -5.61977,-0.0306 -5.55714,0.0797 -7.39024,0.0859 -12.99376,0.24884 -5.07105,0.14744 -5.45504,0.19959 -10.07548,0.38614 -2.06893,0.0835 -1.61148,0.0719 -2.96087,0.0893 -9.87829,-0.64752 -10.79403,13.322498 -0.91574,13.970018 z" /><text
         xml:space="preserve"
         style="font-style:normal;font-variant:normal;font-weight:bold;font-stretch:normal;font-size:3px;line-height:1;font-family:'Noto Sans';-inkscape-font-specification:'Noto Sans Bold';text-align:end;letter-spacing:0.259292px;word-spacing:-0.0114455px;text-anchor:end;white-space:pre;inline-size:71.2881;display:inline;fill:#111110;fill-opacity:1;stroke:none;stroke-width:0.670499"
         x="165.73613"
         y="38.544868"
         id="text14-7-0-6-0-6-4-2-8-50-4-9-6-4"
         transform="matrix(3.0857308,0.00472352,-0.85188189,3.1861478,-205.9504,-18.866966)"><tspan
           x="165.73613"
           y="38.544868"
           id="tspan2"><tspan
             style="font-weight:500;font-family:OpenComicFont;-inkscape-font-specification:'OpenComicFont Medium'"
             id="tspan1">reader</tspan></tspan></text><text
         xml:space="preserve"
         style="font-style:normal;font-variant:normal;font-weight:bold;font-stretch:normal;font-size:3px;line-height:1;font-family:'Noto Sans';-inkscape-font-specification:'Noto Sans Bold';text-align:end;letter-spacing:0.259292px;word-spacing:-0.0114455px;text-anchor:end;white-space:pre;inline-size:71.2881;display:inline;fill:#111110;fill-opacity:1;stroke:none;stroke-width:0.670499"
         x="165.73613"
         y="38.544868"
         id="text14-7-0-6-0-6-4-2-8-50-4-9-6-4-0"
         transform="matrix(3.0857308,0.00472352,-0.85188189,3.1861478,-200.14949,-31.17772)"><tspan
           x="165.73613"
           y="38.544868"
           id="tspan4"><tspan
             style="font-weight:500;font-family:OpenComicFont;-inkscape-font-specification:'OpenComicFont Medium'"
             id="tspan3">fediverse</tspan></tspan></text></g></g></svg>
