<?xml version="1.0" encoding="UTF-8" standalone="no"?>
<!-- Created with Inkscape (http://www.inkscape.org/) -->

<svg width="345.49023" height="1029.8523" viewBox="0 0 91.410957 272.48173" version="1.1" id="svg1" xml:space="preserve"
  xmlns="http://www.w3.org/2000/svg" xmlns:svg="http://www.w3.org/2000/svg">
  <defs id="defs1" />
  <g id="layer2" style="display:inline" transform="translate(-690.67893,-287.20434)">
    <path
      style="fill:currentColor;fill-opacity:1;stroke:none;stroke-width:6.65372;stroke-linecap:round;stroke-dasharray:none;stroke-opacity:1;paint-order:fill markers stroke"
      id="path133"
      d="m 708.73169,287.20433 c -2.11037,2.06602 -3.35566,4.54075 -4.48387,7.08113 -1.40927,3.17331 -2.32476,5.54182 -2.60027,8.95231 -0.11837,1.46517 0.0995,2.93599 0.14931,4.40399 0.51048,3.94534 0.30212,3.06596 1.09363,6.65912 0.23047,1.0464 0.82086,2.99666 0.76192,4.16184 -0.0698,1.38102 -0.93729,2.76117 -1.52149,3.97735 -2.85877,4.85115 -6.39019,9.42104 -8.78687,14.46775 -1.68367,3.54532 -1.68523,4.17574 -2.66514,7.79546 0.0116,3.76861 1.09783,7.40833 2.14175,11.03907 0.53464,1.85954 1.13892,3.55741 1.42594,5.46227 0.15158,1.00598 0.17066,2.0232 0.25598,3.03479 0.59209,2.4708 1.6587,7.19207 2.50233,9.46242 0.72112,1.9406 1.70982,3.80188 2.56516,5.70264 0.77986,1.73299 1.54263,3.47159 2.3404,5.19866 0.72014,1.55904 1.51088,3.09435 2.21316,4.65926 0.592,1.31923 1.11257,2.66084 1.66886,3.99126 0.70556,2.71521 1.28974,3.86965 0.89395,6.68488 -0.33034,2.34965 -1.97583,6.87961 -2.77995,9.00966 -7.22506,19.13811 3.21638,-9.31218 -3.71584,9.68514 -1.68989,3.93957 -3.09282,7.96109 -3.54671,12.15233 -0.33581,3.10078 -0.0251,6.21646 0.0963,9.31812 -0.12954,2.68202 -0.66088,5.33827 -1.51974,7.92121 -0.3546,1.06642 -0.96618,2.07117 -1.22524,3.15724 -0.69646,2.91976 -0.43338,5.11364 -0.35009,8.07011 0.2419,1.39272 0.4677,2.78753 0.72575,4.17818 0.23767,1.2809 0.45437,2.56581 0.76134,3.83605 0.88085,3.6446 2.34402,7.18871 2.89562,10.893 0.156,1.04764 0.14915,2.10818 0.22371,3.16225 -0.6486,11.07975 0.29205,-6.56976 -0.0206,5.72623 -0.0299,1.17592 -0.33795,2.34335 -0.30329,3.51917 0.0441,1.49642 0.30427,2.98373 0.53874,4.46729 0.21664,1.37077 1.37504,6.8632 1.68728,8.36414 0.5521,3.21932 1.6333,6.36282 1.75154,9.63251 0.0351,0.97051 -0.097,1.94037 -0.11822,2.91115 -0.12409,5.69005 0.19323,1.01331 -0.35687,7.08583 0.23858,4.1136 -0.18727,8.22417 -0.0864,12.33776 0.0303,1.23756 0.19936,2.4713 0.21367,3.70907 0.013,1.12811 -0.0939,2.25494 -0.13163,3.38265 -0.0389,1.16332 -0.0657,2.32692 -0.0985,3.49036 -0.43198,2.77945 -0.35454,5.59844 -0.74139,8.38047 -0.20886,1.502 -0.5839,2.98393 -0.87585,4.47587 0,0 67.45134,0.88171 67.45134,0.88171 v 0 c 0.25305,-1.49677 0.42881,-3.00448 0.75917,-4.49032 0.34468,-1.5502 0.84267,-3.0729 1.26402,-4.60933 0.29258,-1.39751 0.58518,-2.79504 0.87779,-4.19255 0.19245,-1.34117 0.5198,-2.67331 0.57737,-4.02355 0.0509,-1.19424 -0.17751,-2.3853 -0.25323,-3.57858 -0.0784,-1.2351 -0.098,-2.47312 -0.2091,-3.70642 -0.10782,-1.19734 -0.34814,-2.3845 -0.44726,-3.58237 -0.34628,-4.18413 -0.19936,-3.59494 0.3125,-7.80207 0.23379,-1.29731 0.4616,-2.59543 0.70133,-3.89196 0.23863,-1.2905 0.62519,-2.56603 0.73383,-3.86913 0.0964,-1.15667 -0.0328,-2.32005 -0.12145,-3.47716 -0.27389,-3.57666 -0.98483,-7.08014 -2.64358,-10.39843 -0.4131,-1.18806 -0.91858,-2.35565 -1.23931,-3.56414 -0.76475,-2.8814 -0.87786,-4.38756 -0.58854,-7.30233 0.12335,-1.24278 0.39153,-2.47223 0.61442,-3.70496 0.23143,-1.28009 0.7126,-2.53819 0.7484,-3.83295 0.0292,-1.05684 -0.37047,-2.09067 -0.55571,-3.13602 -0.58369,-2.4152 -1.07447,-4.84661 -1.69153,-7.2558 -0.6159,-2.40465 -1.36321,-4.78359 -2.03965,-7.17643 -0.32284,-1.14201 -0.73625,-2.26773 -0.97742,-3.42422 -0.23659,-1.13449 -0.30205,-2.28998 -0.45307,-3.43498 0.029,-1.07434 -0.0627,-2.15595 0.0869,-3.22301 0.18384,-1.31172 1.4165,-5.1168 1.85603,-6.31942 0.62463,-1.70912 2.24234,-5.26066 2.60191,-7.02933 0.20984,-1.0321 0.0997,-2.09308 0.14952,-3.13963 -0.51895,-2.70669 -1.196,-5.57659 -1.39174,-8.31034 -0.26474,-3.69713 0.34499,-7.37043 1.16436,-10.99181 1.47156,-4.77548 1.34,-4.68649 3.25366,-9.47344 0.68127,-1.70413 1.47714,-3.37445 2.14296,-5.08299 1.09514,-2.81024 3.04253,-7.71687 2.76863,-10.77234 -0.13086,-1.45997 -1.16483,-2.75593 -1.74723,-4.13389 -1.57157,-2.33491 -4.10612,-6.03482 -5.50712,-8.39727 -0.91948,-1.55053 -1.89481,-3.08815 -2.59146,-4.72043 -1.88645,-4.42005 -2.26126,-8.97353 -1.32924,-13.58474 0.006,-2.15605 0.12764,-4.99962 -0.31408,-7.14396 -0.79225,-3.84608 -3.83644,-7.18714 -3.70266,-11.21575 0.31427,-2.8686 0.16287,-3.44345 1.42428,-6.27189 2.33918,-5.24516 6.53073,-9.68531 10.07385,-14.34555 1.72529,-2.7917 3.04019,-4.17405 3.30388,-7.38287 0.30006,-3.65177 -3.26269,-6.98788 -4.20622,-10.43304 -0.34292,-2.48015 -0.86045,-3.76421 0.1919,-6.2289 1.93903,-4.54125 6.45081,-5.86776 11.33131,-7.30233 z" />
  </g>
</svg>