<?xml version="1.0" encoding="UTF-8" standalone="no"?>
<!-- Created with Inkscape (http://www.inkscape.org/) -->

<svg
   width="52.506592"
   height="71.362434"
   viewBox="0 0 13.892369 18.881309"
   version="1.1"
   id="svg1"
   xml:space="preserve"
   xmlns="http://www.w3.org/2000/svg"
   xmlns:svg="http://www.w3.org/2000/svg"><defs
     id="defs1" /><g
     id="layer2"
     style="display:inline"
     transform="translate(-719.04184,-402.65184)"><path
       style="display:inline;fill:#111110;fill-opacity:1;stroke:none;stroke-width:7.13175;stroke-linecap:round;stroke-dasharray:none;stroke-opacity:1;paint-order:fill markers stroke"
       id="path129-3"
       d="m 719.28615,405.64833 c -0.24173,1.39254 -0.17658,2.80802 -0.16738,4.21249 0.0159,1.38202 -0.009,2.7641 -0.0372,4.14581 -0.0207,1.02437 -0.0499,1.70189 -0.0362,2.72093 0.005,0.40219 0.0259,0.8041 0.0389,1.20614 0.0408,0.80497 0.0965,1.61053 0.22427,2.40817 0.0311,0.19452 0.0833,0.5361 0.18697,0.72633 0.0545,0.10022 0.13991,0.18314 0.20987,0.27471 0.17676,0.0618 0.34418,0.15557 0.53027,0.18539 0.17686,0.0284 0.97582,-0.0778 1.10043,-0.0893 0.29456,-0.0273 0.58946,-0.0519 0.88478,-0.071 0.84481,-0.0548 1.50818,-0.0738 2.36105,-0.10598 2.16395,-0.065 4.32871,-0.0178 6.49293,-0.006 0.35693,-0.01 0.55884,-0.008 0.9019,-0.0435 0.10172,-0.0108 0.20662,-0.0135 0.30365,-0.0439 0.12794,-0.0403 0.2863,-0.0632 0.36371,-0.16627 0.38455,-0.51168 0.28495,-0.76669 0.25987,-1.32018 -0.17782,-1.36495 -0.26529,-2.73776 -0.37025,-4.10863 -0.17134,-2.23748 -0.057,-0.67117 -0.21868,-2.94929 -0.14514,-1.92735 -0.22807,-3.85847 -0.37602,-5.78558 -0.0343,-0.79762 -0.25121,-1.56986 -0.42467,-2.34698 -0.077,-0.32036 -0.13216,-0.64455 -0.19446,-0.96743 -0.0155,-0.0807 -0.0656,-0.34383 -0.10293,-0.43045 -0.0344,-0.08 -0.0855,-0.1528 -0.1283,-0.22917 -0.22373,-0.0708 -0.43648,-0.18693 -0.67122,-0.2125 -0.0943,-0.01 -0.95917,0.20141 -1.0108,0.21318 -0.41193,0.0938 -0.87418,0.19663 -1.28945,0.27177 -0.24999,0.0453 -0.50162,0.0824 -0.7524,0.12349 -1.57021,0.22343 -3.15457,0.33426 -4.74097,0.38627 -0.68288,0.0136 -0.36184,0.01 -0.96308,0.0144 -0.7243,0.006 -0.7149,0.95945 0.009,0.95324 v 0 c 0.61856,-0.006 0.28861,-8e-4 0.98983,-0.015 1.63403,-0.0539 3.26601,-0.16844 4.88311,-0.40023 0.2632,-0.0434 0.52722,-0.0827 0.78955,-0.13024 0.42351,-0.0769 0.90364,-0.18346 1.3242,-0.27934 0.16724,-0.0381 0.33364,-0.0792 0.50076,-0.11772 0.1008,-0.0232 0.28219,0.0272 0.30317,-0.0674 0.0231,-0.10401 -0.15822,-0.15306 -0.23735,-0.22961 0.008,-0.0733 0.003,-0.0695 0.0421,0.0934 0.0672,0.27958 0.1071,0.56546 0.16574,0.8467 0.0258,0.12373 0.0535,0.24715 0.0801,0.37072 0.16467,0.73543 0.37311,1.46591 0.40579,2.22081 0.14804,1.92538 0.23031,3.85482 0.37565,5.78042 0.16221,2.28438 0.0476,0.71586 0.21899,2.95347 0.10457,1.36598 0.19036,2.73412 0.36927,4.09399 0.0115,0.14842 -0.0316,0.30989 0.0348,0.44525 0.0262,0.0536 0.12805,-0.003 0.18935,0.0121 0.0131,0.004 0.025,0.0317 0.0124,0.0359 -0.0716,0.0239 -0.14947,0.0268 -0.225,0.0351 -0.30716,0.0336 -0.48917,0.031 -0.8119,0.0403 -2.18013,-0.0119 -4.36079,-0.0596 -6.5406,0.007 -1.11051,0.0421 -2.21979,0.0803 -3.32621,0.18304 -0.18754,0.0174 -0.37419,0.0424 -0.56134,0.0632 -0.0898,0.01 -0.20308,-0.0277 -0.26965,0.0292 -0.0396,0.0339 0.0593,0.0837 0.0888,0.12564 -0.0163,0.0864 -0.0143,0.1215 -0.0762,-0.11778 -0.032,-0.12347 -0.0512,-0.24958 -0.0715,-0.37517 -0.12382,-0.76595 -0.17619,-1.53976 -0.216,-2.31281 -0.0128,-0.39143 -0.0332,-0.78269 -0.0385,-1.17431 -0.0139,-1.01051 0.0155,-1.69058 0.0359,-2.70806 0.0281,-1.38891 0.0532,-2.77818 0.0372,-4.1674 -0.003,-0.40982 -0.006,-0.81963 -0.008,-1.22947 -0.003,-0.68859 -0.0152,-1.04921 0.028,-1.70091 0.022,-0.33686 0.0607,-0.59911 0.10495,-0.9276 0.0133,-0.10143 0.0276,-0.20281 0.0416,-0.30417 0.0338,-0.67334 -0.9894,-0.71786 -1.02323,-0.0445 z" /></g></svg>
