<?xml version="1.0" encoding="UTF-8" standalone="no"?>
<!-- Created with Inkscape (http://www.inkscape.org/) -->

<svg
   width="285.98926"
   height="71.155228"
   viewBox="0 0 75.667991 18.826486"
   version="1.1"
   id="svg1"
   xml:space="preserve"
   xmlns="http://www.w3.org/2000/svg"
   xmlns:svg="http://www.w3.org/2000/svg"><defs
     id="defs1" /><g
     id="layer1"
     style="display:inline"
     transform="translate(-711.45786,-26.699955)"><g
       id="g15"
       transform="matrix(0.61811273,0,0,0.61811273,565.60683,-19.699127)"><path
         style="fill:#111110;fill-opacity:1;stroke-width:0.217;stroke-linecap:square;paint-order:fill markers stroke"
         id="path14"
         d="m 240.13415,76.780614 c -0.47078,2.79531 -0.96592,5.585087 -1.49798,8.369464 -0.9124,4.416671 -1.79312,8.838216 -2.47007,13.29767 -0.10654,1.181756 -0.58263,2.680622 0.43472,3.670872 1.18008,1.14864 3.23747,1.29982 4.67748,1.5019 1.23554,0.17338 2.48185,0.25863 3.72277,0.38794 1.6079,0.0849 3.21453,0.19884 4.8237,0.25472 3.89492,0.13528 9.64189,0.16169 13.43226,0.17437 8.5444,0.0286 17.08803,-0.0498 25.63204,-0.12019 11.54684,-0.0753 23.09288,-0.20918 34.6375,-0.4474 2.44218,-0.13865 4.88034,-0.0367 7.32171,0.0312 2.35426,0.0654 2.37659,0.0481 4.76816,0.0467 3.09017,-0.076 1.57715,-0.0178 4.53924,-0.16986 1.41235,-0.0727 1.30945,-2.07011 -0.10289,-1.99735 v 0 c -2.89261,0.1495 -1.41343,0.0921 -4.43775,0.16721 -2.34712,0.002 -2.38059,0.0189 -4.69453,-0.0454 -2.47912,-0.0689 -4.9553,-0.17066 -7.43519,-0.032 -11.53639,0.23806 -23.07415,0.37181 -34.61274,0.44704 -8.53413,0.0704 -17.0679,0.14856 -25.60243,0.12017 -3.76778,-0.0125 -9.46552,-0.0387 -13.34044,-0.17166 -1.57543,-0.0541 -3.14841,-0.16456 -4.72262,-0.24684 -3.2116,-0.33043 -3.25891,-0.26621 -6.09762,-0.77369 -0.27447,-0.0491 -0.55014,-0.10166 -0.81462,-0.18993 -0.11379,-0.038 -0.27588,-0.0696 -0.30869,-0.18501 -0.0933,-0.32799 0.14166,-1.987213 0.15731,-2.122677 0.67259,-4.434356 1.55086,-8.830445 2.45715,-13.222343 0.535,-2.799932 1.03283,-5.605325 1.50635,-8.416224 0.23236,-1.394994 -1.74045,-1.723607 -1.97282,-0.328612 z" /><path
         style="fill:#111110;fill-opacity:1;stroke-width:0.217;stroke-linecap:square;paint-order:fill markers stroke"
         id="path15"
         d="m 243.78055,77.062983 c 9.24412,1.070147 18.53762,1.560811 27.82675,2.038474 18.51589,0.82669 37.05029,1.161423 55.58306,1.26764 2.23121,0.0011 4.46241,0.0058 6.69361,0.0031 4.67125,-0.0056 6.01912,-0.0098 10.5078,-0.07606 3.09036,-0.04561 6.17955,-0.129895 9.26997,-0.168347 0.54247,0.02045 1.75191,-0.133281 2.28613,0.403268 0.14205,0.142684 0.13568,0.380555 0.17603,0.577818 0.0768,0.375563 0.14282,0.754666 0.17467,1.136682 0.11711,1.405405 0.0609,2.491464 0.0379,3.913835 -0.17364,4.158634 -0.58364,8.301366 -0.90331,12.450011 -0.19995,1.685416 -0.11771,3.395226 -0.2858,5.081256 -0.018,0.0545 -0.0251,0.1138 -0.0537,0.1636 -0.006,0.0107 -0.0282,-0.017 -0.0238,-0.0286 0.04,-0.10351 0.21034,-0.20442 0.14972,-0.29738 -0.0644,-0.0987 -0.2355,-0.009 -0.35319,-0.0146 -0.37301,-0.0192 -0.74615,-0.037 -1.11887,-0.0612 -0.65008,-0.0423 -1.29963,-0.0923 -1.94945,-0.1384 -7.24802,-0.49435 -14.5147,-0.59657 -21.77645,-0.69858 -4.56448,-0.0496 -2.39257,-0.0416 -6.51571,-0.0327 -1.4142,0.003 -1.40983,2.00308 0.004,1.99999 v 0 c 4.0949,-0.009 1.93381,-0.0169 6.48324,0.0325 7.22397,0.10144 14.45286,0.20249 21.66318,0.69378 0.66562,0.0471 1.3307,0.10223 1.99681,0.14119 1.23098,0.072 2.20232,0.28753 3.15953,-0.64417 0.19314,-0.18799 0.27053,-0.68634 0.32541,-0.92779 0.15327,-1.69981 0.10485,-3.41632 0.28874,-5.115273 0.32274,-4.189629 0.73752,-8.373295 0.90897,-12.573233 0.0246,-1.721411 0.2368,-4.623405 -0.55681,-6.203092 -0.91573,-1.82277 -2.36183,-1.850906 -4.14261,-1.858767 -3.09015,0.03859 -6.17911,0.122693 -9.2692,0.168339 -4.47969,0.06617 -5.81771,0.07028 -10.48271,0.07591 -2.22769,0.0027 -4.4554,-0.0021 -6.68309,-0.0031 -18.50234,-0.105905 -37.00632,-0.440111 -55.49183,-1.265036 -9.25704,-0.475774 -18.51843,-0.964375 -27.73057,-2.031201 -1.4072,-0.140624 -1.60607,1.849466 -0.19887,1.99009 z" /></g></g></svg>
