<?xml version="1.0" encoding="UTF-8" standalone="no"?>
<!-- Created with Inkscape (http://www.inkscape.org/) -->

<svg
   width="82.716789"
   height="57.531269"
   viewBox="0 0 21.885484 15.221814"
   version="1.1"
   id="svg1"
   xml:space="preserve"
   xmlns="http://www.w3.org/2000/svg"
   xmlns:svg="http://www.w3.org/2000/svg"><defs
     id="defs1" /><g
     id="layer2"
     style="display:inline"
     transform="translate(-795.72006,-30.616885)"><path
       style="display:inline;fill:#111110;fill-opacity:1;stroke:none;stroke-width:5.68634;stroke-linecap:round;stroke-dasharray:none;stroke-opacity:1;paint-order:fill markers stroke"
       id="path111"
       d="m 796.38357,31.889117 c -0.0801,0.662784 -0.19903,1.320578 -0.30943,1.978869 -0.18079,1.083999 -0.30962,2.179193 -0.34447,3.278309 -0.006,0.210501 -0.006,0.421181 -0.008,0.631772 -0.0212,1.111405 0.16967,2.204462 0.35892,3.294334 0.11827,0.654863 0.25362,1.306301 0.34132,1.966221 0.0396,0.322112 0.0415,0.6469 0.043,0.970908 0.0123,0.235216 -0.0209,0.473947 0.008,0.70845 0.008,0.05939 0.0214,0.117779 0.0322,0.176668 0.0515,0.100389 0.0839,0.213247 0.15467,0.301171 0.25172,0.312817 0.66303,0.393563 1.03812,0.42753 0.42521,0.03851 0.88913,0.01359 1.3094,0.0052 2.65306,-0.0858 5.30673,-0.14975 7.96065,-0.202147 1.43322,-0.03293 2.86824,-0.01857 4.29395,0.139957 0.63511,0.09166 1.26802,0.210852 1.90929,0.253231 0.13894,0.0092 0.27826,0.01165 0.41739,0.01749 0.7322,0.01578 1.45851,-0.0858 2.18292,-0.1772 0.31859,-0.04463 0.63954,-0.06114 0.9608,-0.06805 0.52715,-0.06522 0.84233,-0.310381 0.87264,-0.887294 0.0109,-0.20484 -0.12819,-0.917588 -0.15016,-1.044276 -0.27541,-1.560635 -0.53818,-3.126655 -0.66714,-4.707493 -0.023,-0.282229 -0.0356,-0.565211 -0.0534,-0.847818 -0.0604,-1.195446 -0.0495,-2.392816 -0.0368,-3.589238 0.006,-0.530237 0.0127,-1.060468 0.0167,-1.590728 0.008,-0.170541 0.0711,-0.331002 0.1217,-0.492669 0.12091,-0.518326 0.25593,-0.875153 -0.2186,-1.320629 -0.10826,-0.101615 -0.27695,-0.107117 -0.41541,-0.160676 -0.12837,-0.01102 -0.25638,-0.02843 -0.38517,-0.03308 -0.15881,-0.0058 -0.31785,0.0024 -0.47676,0.002 -0.25358,-7.71e-4 -0.50716,-0.0036 -0.76074,-0.0058 -1.22116,-0.01028 -2.4423,-0.02049 -3.66349,-0.02881 -2.63025,-0.02353 -5.25838,-0.1279 -7.88669,-0.22271 -1.16925,-0.05485 -2.34036,-0.07974 -3.50607,0.03894 -0.0705,0.0085 -0.14101,0.01706 -0.21151,0.02558 -0.8296,0.100752 -0.6871,1.273994 0.14249,1.173241 v 0 c 0.0632,-0.0077 0.12635,-0.01541 0.18952,-0.02312 1.11137,-0.114744 2.22824,-0.08378 3.34298,-0.03355 2.6398,0.09522 5.27944,0.199907 7.92122,0.22345 1.66713,0.01138 3.33444,0.03575 5.00157,0.0289 -0.0957,-0.189523 0.0117,0.0319 -0.14478,-0.427535 -0.006,-0.01548 0.006,0.03241 0.006,0.04876 -0.003,0.123452 -0.0377,0.243219 -0.0623,0.363349 -0.0848,0.272894 -0.17465,0.546602 -0.17519,0.835844 -0.004,0.528924 -0.0104,1.057816 -0.0167,1.586717 -0.0129,1.225547 -0.0236,2.452071 0.0392,3.676584 0.019,0.296449 0.0325,0.593288 0.0568,0.889347 0.13214,1.609842 0.39826,3.204855 0.67896,4.794196 0.0333,0.18961 0.0659,0.379344 0.0998,0.568829 0.0113,0.06263 -0.008,0.141597 0.0358,0.187495 0.0243,0.02538 0.0357,-0.0623 0.0626,-0.08494 0.0206,-0.01743 0.26883,-0.213262 0.21772,-0.124467 -0.36209,0.008 -0.72384,0.02739 -1.08295,0.07706 -0.65975,0.08325 -1.32094,0.17869 -1.98774,0.168848 -0.75463,-0.02849 -1.49911,-0.144891 -2.24405,-0.264513 -1.47672,-0.16243 -2.96265,-0.182566 -4.44715,-0.146885 -2.65448,0.05241 -5.30868,0.11629 -7.96231,0.202179 -0.53753,0.01207 -0.66203,0.02697 -1.1308,0.0046 -0.071,-0.0034 -0.14143,-0.0151 -0.21243,-0.01824 -0.018,-8.66e-4 -0.0506,-0.01132 -0.0537,0.0064 -0.0127,0.07227 0.15362,0.116193 0.0752,0.206898 -0.0291,-0.04793 -0.0154,-0.161033 -0.0152,-0.205316 0,-0.145792 0.002,-0.291583 0,-0.437375 -0.002,-0.374374 -0.006,-0.749542 -0.0533,-1.12154 -0.0904,-0.675191 -0.22586,-1.342289 -0.34838,-2.012145 -0.17682,-1.018279 -0.36076,-2.038847 -0.34159,-3.077467 0.002,-0.19628 0,-0.392637 0.007,-0.588838 0.0323,-1.052931 0.15647,-2.102091 0.32963,-3.140462 0.11307,-0.674415 0.2345,-1.348335 0.31651,-2.027357 0.10392,-0.829216 -1.06877,-0.976183 -1.1727,-0.146967 z" /></g></svg>
