<?xml version="1.0" encoding="UTF-8" standalone="no"?>
<!-- Created with Inkscape (http://www.inkscape.org/) -->

<svg width="593.0105" height="230.6071" viewBox="0 0 156.90069 61.014791" version="1.1" id="svg1" xml:space="preserve"
  xmlns="http://www.w3.org/2000/svg" xmlns:svg="http://www.w3.org/2000/svg">
  <defs id="defs1" />
  <g id="layer1" style="display:inline" transform="translate(-690.85923,-8.7339214)">
    <path style="fill:#fcfcf1;fill-opacity:1;stroke-width:0.217;stroke-linecap:square;paint-order:fill markers stroke"
      id="path105"
      d="m 730.03061,57.546207 c -0.13411,-0.3101 -0.26822,-0.62021 -0.40233,-0.93031 -0.10214,-0.46462 -0.1247,-0.95421 -0.30641,-1.39385 -0.4411,-1.06713 -1.18822,-2.0014 -1.5502,-3.0979 -0.91983,-2.78627 -1.18765,-6.46956 -1.06563,-9.33981 0.0764,-1.79765 0.41639,-3.57439 0.62458,-5.36159 1.305,-4.53071 1.31515,-5.69777 3.71749,-9.72314 0.74642,-1.25069 1.57181,-2.47686 2.58671,-3.52153 0.81856,-0.84255 1.72209,-1.74319 2.84929,-2.07387 0.90221,-0.26469 3.72842,0.37367 2.78931,0.41967 -11.05639,0.5416 -22.12781,0.71307 -33.19171,1.0696 1.77522,1.36459 3.77585,2.47772 5.32566,4.09377 2.29025,2.38813 6.37693,9.29965 8.33072,12.00711 1.09014,1.51064 2.18392,3.04026 3.50837,4.35033 1.03347,1.02224 2.05803,2.49174 3.50832,2.59016 11.34462,0.76988 22.74141,-0.0247 34.11211,-0.0371 3.98145,-3.94621 4.01169,-3.35998 6.63882,-8.63395 0.94419,-1.89547 1.56855,-3.93606 2.45173,-5.86072 1.44563,-3.15041 2.69325,-7.39524 6.86329,-8.19211 1.14869,-0.21951 2.16652,0.88145 3.24977,1.32218 -11.66667,0.38647 -23.56855,-1.20339 -34.99998,1.15941 -2.00706,0.41485 2.11994,3.55348 2.7249,5.51164 0.62052,2.00854 0.74059,4.14552 0.90606,6.2412 0.25617,3.24449 0.12182,7.14637 -0.48204,10.39738 -0.16964,0.9133 -0.5397,1.77773 -0.80956,2.66659 12.40357,0.37671 24.84512,2.1707 37.21069,1.13013 1.43343,-0.12062 0.31298,-2.86074 0.41018,-4.29595 0.12169,-1.79605 -0.0193,-3.61442 0.2463,-5.39488 0.31216,-2.0922 0.94502,-4.12448 1.47926,-6.17126 2.05264,-7.86381 1.40539,-5.59922 4.56579,-12.97931 2.164,-3.90239 2.93293,-5.8113 5.74045,-9.09632 0.7575,-0.8863 1.38716,-2.17912 2.52862,-2.4166 0.98049,-0.20399 3.68948,1.22062 2.69399,1.33005 -11.18378,1.22941 -22.84047,-0.90398 -33.68948,2.07722 -2.28674,0.62838 2.27521,4.16169 3.41281,6.24254 0.6159,2.40498 1.20071,4.81813 1.84764,7.21495 0.73237,2.71332 1.64629,5.37861 2.28994,8.11433 0.61688,2.62201 1.03251,5.28781 1.48778,7.94266 1.66389,9.70272 0.56367,4.32125 1.92019,13.05514 0.21778,1.40208 0.49916,2.79354 0.74874,4.19031 6.69632,12.71104 2.705,6.95822 37.10496,0.83738 1.77686,-0.31616 1.29278,-3.37013 1.93217,-5.05786 1.07238,-2.83061 4.25344,-11.40978 5.34636,-13.90378 1.10852,-2.52965 2.40948,-4.97055 3.6142,-7.45583 2.40615,-3.95813 4.71091,-8.50547 8.26186,-11.66996 1.25581,-1.11915 2.67303,-2.30232 4.33009,-2.59168 1.23341,-0.21538 4.79901,1.07947 3.55428,1.21492 -10.61059,1.15465 -21.75436,-1.23263 -31.96463,1.8767 -2.54902,0.77626 3.19482,4.2654 4.79221,6.3981 3.21686,8.07003 3.29988,7.38829 5.25883,15.80625 0.56632,2.43346 0.9542,4.90502 1.43129,7.35753 0,0 23.79549,-0.66111 23.79549,-0.66111 v 0 c -0.91202,-2.41931 -1.97866,-4.78585 -2.73603,-7.25794 -2.30449,-7.52181 -1.93836,-8.15869 -2.55939,-15.89036 3.31755,-18.36054 3.97052,-8.56885 -33.96356,-12.66201 -0.61018,-0.0658 0.0974,1.22362 0.13475,1.83618 0.23474,3.84557 0.41741,4.1891 -0.66048,8.55637 -0.55917,2.26549 -1.40343,4.45094 -2.10513,6.67642 -1.18388,2.45647 -2.18334,5.01068 -3.55161,7.36942 -2.5569,4.40785 -6.44765,9.69522 -10.45972,12.96481 -1.79006,1.45881 -8.1857,3.04261 -5.93735,3.56928 8.02359,1.87951 41.41285,3.63246 24.70287,0.98165 -1.35543,-1.15257 -2.92211,-2.09521 -4.06632,-3.45772 -2.97252,-3.53966 -4.82299,-8.19872 -6.11154,-12.5468 -0.76207,-2.57164 -1.41065,-5.1912 -1.77294,-7.84881 -0.48744,-3.57524 -0.40966,-11.60243 -0.42439,-15.33922 4.22552,-17.8435002 4.19433,-8.02325 -33.89964,-12.5162502 -0.74221,-0.0875 0.88451,1.23091 1.12869,1.9372402 0.29676,0.85839 0.39132,1.77913 0.46889,2.68404 0.34883,4.06792 -0.006,4.93001 -0.51466,9.27333 -0.55285,2.07954 -0.91641,4.21888 -1.65857,6.23862 -1.09937,2.99189 -4.57925,9.90217 -6.61196,12.48326 -1.35139,1.71596 -2.88968,3.34034 -4.69228,4.57378 -1.08923,0.74531 -5.08235,1.09225 -3.76829,1.2154 11.21789,1.05134 22.50899,1.06382 33.76346,1.59573 -4.33736,-0.93513 -4.36221,0.0481 -6.07256,-5.00354 -1.19009,-3.51502 -1.39723,-8.3751 -0.62386,-11.96671 0.43225,-2.00739 4.12785,-5.1101 2.18049,-5.76141 -11.44254,-3.82696 -23.85335,-3.65065 -35.78003,-5.47598 1.15799,1.3224 3.00905,3.01603 2.90764,5.02676 -0.0926,1.83632 -0.87976,3.59895 -1.68259,5.25307 -1.72465,3.55341 -4.53325,7.07746 -7.83906,9.3045 -1.42501,0.96 -3.13689,1.40317 -4.70533,2.10475 8.37021,0.35825 16.73554,1.29079 25.11064,1.07477 1.91556,-0.0494 -3.78608,-0.77981 -5.52728,-1.57989 -1.96957,-0.90501 -3.95598,-1.95283 -5.49115,-3.48303 -3.19895,-3.18857 -4.69674,-7.48341 -5.0362,-11.87671 -0.14227,-1.84121 0.32096,-3.67942 0.48144,-5.51913 -12.3192,-0.85819 -24.61115,-2.32115 -36.9576,-2.57457 -0.6337,-0.013 -0.45352,1.18748 -0.60219,1.80364 -0.22048,0.91376 -0.32481,1.85179 -0.50254,2.77482 -0.24921,1.29434 -0.5141,2.58562 -0.77822,3.87699 -1.28125,6.26423 -0.66881,3.56565 -2.43836,10.17567 -0.90564,3.46624 -1.80329,7.2392 -3.02501,10.62079 -0.52877,1.4636 -1.07681,2.93154 -1.81661,4.30065 -0.57741,1.0686 -1.45127,1.95021 -2.11182,2.96952 -1.9508,3.01032 0.58072,-0.23484 -1.29529,2.07806 z" />
  </g>
</svg>