<?xml version="1.0" encoding="UTF-8" standalone="no"?>
<!-- Created with Inkscape (http://www.inkscape.org/) -->

<svg width="302.93631" height="62.186825" viewBox="0 0 80.151898 16.453596" version="1.1" id="svg1" xml:space="preserve"
  xmlns="http://www.w3.org/2000/svg" xmlns:svg="http://www.w3.org/2000/svg">
  <defs id="defs1" />
  <g id="layer2" style="display:inline" transform="translate(-210.78253,-31.776498)">
    <path
      style="display:inline;fill:currentColor;fill-opacity:1;stroke-width:0.217;stroke-linecap:square;paint-order:fill markers stroke"
      id="path20-1"
      d="m 219.26778,47.97372 c 5.79822,-0.02259 11.59625,-0.104555 17.3942,-0.166143 11.00808,-0.101044 22.01117,0.299421 33.01717,0.42068 3.44676,0.01278 6.89423,-0.03943 10.33741,-0.200184 1.22086,-0.0287 2.43192,-0.134964 3.64101,-0.306221 11.18394,-1.708732 8.76742,-17.525193 -2.41652,-15.816463 v 0 c -0.64693,0.143929 -1.31816,0.07823 -1.97437,0.140266 -3.13497,0.147935 -6.27402,0.192162 -9.41224,0.183563 -11.12107,-0.121128 -22.2392,-0.52935 -33.36242,-0.420738 -5.74129,0.06099 -11.48268,0.142205 -17.22424,0.165239 -11.31371,0 -11.31371,16.000001 0,16.000001 z" />
  </g>
</svg>