<?xml version="1.0" encoding="UTF-8" standalone="no"?>
<!-- Created with Inkscape (http://www.inkscape.org/) -->

<svg width="15.801025" height="16.620697" viewBox="0 0 4.1806879 4.3975591" version="1.1" id="svg1" xml:space="preserve"
  xmlns="http://www.w3.org/2000/svg" xmlns:svg="http://www.w3.org/2000/svg">
  <defs id="defs1" />
  <g id="layer2" style="display:inline" transform="translate(-703.49198,-116.38847)">
    <path
      style="fill:currentColor;fill-opacity:1;stroke:none;stroke-width:0.33979;stroke-linecap:round;stroke-linejoin:round;stroke-dasharray:none;stroke-opacity:1;paint-order:normal"
      id="path1276-2"
      d="m 707.24775,120.68467 c 0.006,-0.0835 0.0204,-0.16674 0.0192,-0.25047 -0.005,-0.36106 -0.0582,-0.71632 -0.13842,-1.0684 -0.12454,-0.54649 -0.29173,-1.06827 -0.51209,-1.58437 -0.10346,-0.24221 -0.23212,-0.47283 -0.34819,-0.70925 -0.10739,-0.16798 -0.18991,-0.35463 -0.32199,-0.50394 -0.18331,-0.20723 -0.36446,-0.27615 -0.5137,0.0161 -0.0904,0.17708 -0.1248,0.37875 -0.16232,0.57402 -0.0985,0.51237 -0.12902,1.17184 -0.1657,1.68653 -0.0192,0.47653 -0.0626,0.95161 -0.0877,1.42778 -0.007,0.12723 -0.0248,0.25512 -0.0131,0.382 0.004,0.0458 0.0136,0.12095 0.0595,0.12435 0.0666,0.005 0.11846,-0.064 0.16924,-0.10738 0.10156,-0.0866 0.19042,-0.18704 0.28562,-0.28056 0.47496,-0.4649 0.98807,-0.88919 1.46428,-1.35271 0.14642,-0.14252 0.54936,-0.49589 0.58734,-0.76415 0.0127,-0.0893 -0.0668,-0.16756 -0.10013,-0.25133 -0.12723,-0.0501 -0.24703,-0.12662 -0.38169,-0.15036 -0.46233,-0.0815 -1.07856,-0.0344 -1.53228,0.0198 -0.48024,0.0574 -1.02457,0.15905 -1.49001,0.30698 -0.14931,0.0475 -0.28995,0.11875 -0.43492,0.17813 -0.046,0.0601 -0.15001,0.10568 -0.13773,0.18031 0.033,0.20024 0.7108,0.5143 0.72235,0.52029 0.24801,0.12862 0.50249,0.24431 0.75413,0.36565 0.64216,0.30965 1.08131,0.51824 1.72452,0.82502 0.25657,0.11574 0.51316,0.23147 0.76974,0.34721 0.01,0.007 0.21864,-0.27773 0.20856,-0.2851 v 0 c -0.24732,-0.12934 -0.49463,-0.25868 -0.74195,-0.38802 -0.28865,-0.1396 -0.57367,-0.28699 -0.86595,-0.4188 -0.67556,-0.30466 -1.02059,-0.43408 -1.71135,-0.65378 -0.19041,-0.0606 -0.38586,-0.1044 -0.57619,-0.16523 -0.0766,-0.0245 -0.1976,-0.0144 -0.22379,-0.0905 -0.0198,-0.0574 0.11382,-0.0425 0.17071,-0.0637 0.6474,-0.12189 1.29642,-0.23555 1.94675,-0.3408 0.11935,-0.0193 1.13551,-0.18279 1.34688,-0.19195 0.12244,-0.005 0.24424,0.0207 0.36638,0.0311 0.016,0.0498 0.0692,0.10169 0.0477,0.14943 -0.0747,0.16693 -0.6118,0.59734 -0.67392,0.65309 -0.49676,0.44594 -0.98935,0.90322 -1.37777,1.45049 -0.0226,0.0358 -0.24477,0.34896 -0.2694,0.47583 -0.007,0.0372 0.0409,-0.0647 0.0535,-0.10044 0.0442,-0.12401 0.0867,-0.24909 0.11632,-0.37732 0.1363,-0.58959 0.1331,-0.80572 0.19358,-1.43889 0.0107,-0.29238 0.0245,-0.58464 0.0305,-0.87714 0.005,-0.26523 6.9e-4,-0.53056 0.002,-0.79583 0.002,-0.18404 -0.01,-0.36877 0.007,-0.55209 0.005,-0.059 -0.002,-0.17762 0.0567,-0.16844 0.27015,0.0424 0.10311,0.83675 0.39041,0.72149 0.49647,1.13176 1.00982,2.2726 1.25199,3.49155 -10e-5,0.001 0.0333,0.005 0.0335,0.004 z" />
  </g>
</svg>