<?xml version="1.0" encoding="UTF-8" standalone="no"?>
<!-- Created with Inkscape (http://www.inkscape.org/) -->

<svg
   width="33.056152"
   height="46.846317"
   viewBox="0 0 8.7461069 12.394754"
   version="1.1"
   id="svg1"
   xml:space="preserve"
   xmlns="http://www.w3.org/2000/svg"
   xmlns:svg="http://www.w3.org/2000/svg"><defs
     id="defs1" /><g
     id="layer1"
     style="display:inline"
     transform="translate(-838.01316,-241.56184)"><path
       style="opacity:1;fill:#e4e4cb;fill-opacity:1;stroke-width:0.742195;stroke-linecap:square;paint-order:fill markers stroke"
       id="path313"
       d="m 844.88554,244.7396 c -0.0545,-0.20319 -0.0785,-0.41696 -0.16373,-0.60934 -0.69927,-1.57576 -2.39299,-2.75985 -4.17976,-2.27413 -0.50883,0.13837 -0.91266,0.52838 -1.36898,0.79256 -0.30478,0.4611 -0.71887,0.86632 -0.9143,1.38329 -0.61045,1.61481 -0.0591,3.55942 1.38757,4.54208 1.37002,0.93056 2.12104,0.63378 3.69122,0.57429 0.54896,-0.26892 1.16742,-0.42706 1.64686,-0.80618 0.45953,-0.36316 0.84795,-0.84079 1.10308,-1.36812 0.71182,-1.47126 0.39843,-3.46722 -0.85245,-4.55827 -0.27195,-0.23722 -0.66726,-0.2749 -1.0009,-0.41236 -0.2653,0.12228 -0.62846,0.12734 -0.79594,0.36684 -0.16895,0.24133 -0.1552,0.5965 -0.077,0.8806 0.28843,1.04734 1.69872,1.96319 2.77697,1.54077 0.291,-0.11397 0.41402,-0.46829 0.62102,-0.70251 -0.11154,-0.37096 -0.11512,-0.79358 -0.33451,-1.11274 -0.85725,-1.24727 -2.77288,-1.91319 -4.11038,-0.96842 -1.10323,0.77935 -1.02423,1.90708 -1.22347,3.07292 0.30855,3.40529 -0.007,0.6792 0.57165,4.0404 0.19823,1.15113 0.4867,1.98755 -0.0428,3.08634 -0.16802,0.34892 -0.44357,0.65847 -0.76545,0.87362 -0.32607,0.2179 -0.74191,0.25467 -1.11288,0.38246 -0.26704,-0.0414 -0.5828,0.0322 -0.80106,-0.12549 -0.74744,-0.54594 0.64676,-1.62284 0.74644,-1.70512 0.69278,-0.57187 1.49005,-1.00371 2.23507,-1.50557 0.0422,-0.0414 -0.5671,-0.64188 -0.60945,-0.59881 v 0 c -0.94961,0.79547 -2.75204,1.84318 -2.9855,3.3566 -0.0528,0.34202 0.1409,0.76049 0.43538,0.942 0.36596,0.22573 0.85623,0.0786 1.28435,0.11816 1.07073,-0.46422 1.60454,-0.47234 2.17158,-1.61805 0.59209,-1.19633 0.3811,-2.06194 0.17686,-3.32703 -1.05629,-6.54297 0.20939,2.52099 -0.65007,-3.8448 0.10587,-1.09896 -0.0598,-1.88979 0.83761,-2.6898 1.03008,-0.9183 2.62356,-0.16229 3.43269,0.64822 0.20443,0.20456 0.28294,0.50471 0.42434,0.75703 -0.1391,0.16549 -0.22055,0.40684 -0.41732,0.49661 -0.84502,0.38523 -2.62091,-0.73943 -2.35352,-1.71826 0.0373,-0.13653 0.21412,-0.18527 0.32118,-0.27812 0.25279,0.10899 0.55406,0.14296 0.75843,0.3273 1.05867,0.95606 1.42433,2.62746 0.7989,3.92764 -0.60592,1.25972 -1.24073,1.31277 -2.4141,1.87959 -1.23979,0.1333 -1.81799,0.39165 -2.99175,-0.29927 -1.32625,-0.78063 -1.85344,-2.48704 -1.37145,-3.91017 0.15437,-0.45557 0.5031,-0.82043 0.75464,-1.23067 0.38891,-0.23674 0.73718,-0.55908 1.1668,-0.70955 1.23912,-0.43395 2.37808,0.25054 3.18656,1.13689 0.41024,0.44958 0.51973,0.76071 0.75723,1.269 10e-4,0.0184 0.25178,-0.003 0.25022,-0.023 z" /></g></svg>
