<?xml version="1.0" encoding="UTF-8" standalone="no"?>
<!-- Created with Inkscape (http://www.inkscape.org/) -->

<svg
   width="66.055908"
   height="43.544621"
   viewBox="0 0 17.477292 11.52118"
   version="1.1"
   id="svg1"
   xml:space="preserve"
   xmlns="http://www.w3.org/2000/svg"
   xmlns:svg="http://www.w3.org/2000/svg"><defs
     id="defs1" /><g
     id="layer2"
     style="display:inline"
     transform="translate(-682.86807,-231.0162)"><path
       style="display:inline;fill:#e4e4cb;fill-opacity:1;stroke-width:0.927402;stroke-linecap:square;paint-order:fill markers stroke"
       id="path314"
       d="m 687.14157,234.79781 c 0.0794,-0.21988 0.46641,-1.54608 0.0954,-1.65139 -0.91622,-0.26047 -1.92464,0.8024 -2.34784,1.31351 -0.5148,0.62172 -0.87525,1.35651 -1.31287,2.03479 -0.23483,0.79587 -0.66578,1.55876 -0.70439,2.38756 -0.0612,1.31238 0.62318,2.9046 1.96792,3.39839 0.81021,0.29745 1.73243,0.31133 2.58382,0.16902 2.29538,-0.38273 3.34029,-1.56236 5.09522,-2.92653 0.57131,-0.78812 1.29516,-1.48566 1.71392,-2.36434 0.91293,-1.91571 1.04147,-4.77863 -1.2496,-5.82634 -0.59049,-0.27022 -1.28817,-0.38375 -1.92838,-0.27587 -0.75724,0.12792 -1.39734,0.6379 -2.09602,0.95678 -0.39095,0.5765 -0.99154,1.057 -1.1729,1.72951 -0.15545,0.57637 -0.0789,1.26405 0.22748,1.77634 0.33788,0.56491 0.95163,0.95872 1.55951,1.21112 1.45233,0.60296 3.48485,0.44027 4.95598,0.17468 0.6464,-0.11662 1.2569,-0.38222 1.88534,-0.57292 0.26709,-0.13768 0.65759,-0.14898 0.80121,-0.41305 0.0819,-0.15103 -0.32849,-0.21936 -0.48943,-0.15977 -0.45759,0.16902 -0.84844,0.48959 -1.2286,0.79552 -0.92668,0.74538 -2.08005,1.72265 -2.36855,2.98279 -0.0924,0.40327 0.13079,0.81744 0.19614,1.22617 0.40374,0.21473 0.76139,0.56181 1.21124,0.64309 1.64104,0.29642 3.89184,-0.45466 5.26629,-1.34187 0.21114,-0.13614 0.59285,-0.28358 0.53744,-0.52895 -0.053,-0.23425 -0.46524,-0.12072 -0.69783,-0.18083 -2.05245,1.21785 -1.00948,0.44439 -3.02361,2.4562 -0.0323,0.0411 0.56787,0.50039 0.60027,0.45825 v 0 c 1.86804,-1.94417 0.97235,-1.10365 2.64444,-2.56624 0.0463,-0.17004 0.30028,-0.43873 0.13912,-0.50961 -0.2075,-0.0915 -0.40297,0.20857 -0.60959,0.30206 -1.17968,0.53388 -1.81656,0.81483 -3.11385,1.14835 -0.46812,0.12022 -0.94301,0.25018 -1.4262,0.26149 -0.33017,0.0101 -0.64619,-0.13665 -0.96929,-0.20499 -0.0288,-0.28408 -0.17688,-0.58153 -0.0865,-0.85243 0.33259,-0.99658 1.53213,-2.15223 2.18708,-2.8395 0.32782,-0.3442 0.75638,-0.60435 1.00955,-1.00645 0.0952,-0.15104 0.12683,-0.46852 -0.0396,-0.53479 -0.28348,-0.11303 -0.60128,0.10583 -0.90193,0.15874 -0.60752,0.14333 -1.20776,0.32159 -1.82255,0.42948 -1.19737,0.21013 -2.93628,0.40328 -4.13642,0.1084 -0.50351,-0.1233 -1.05278,-0.32314 -1.37266,-0.73129 -0.273,-0.34831 -0.33891,-0.88013 -0.2262,-1.30802 0.14934,-0.56669 0.63939,-0.98231 0.95908,-1.47348 0.45182,-0.29077 0.83772,-0.72867 1.35555,-0.8716 0.92466,-0.25533 2.26586,0.003 2.78787,0.93839 0.29098,0.52117 0.36434,1.16647 0.32036,1.76174 -0.15201,2.05738 -1.00866,2.66785 -2.21295,4.27337 -1.80246,1.45042 -2.28601,2.14185 -4.51019,2.80949 -0.56327,0.16901 -1.18571,0.32314 -1.75537,0.17673 -1.18158,-0.30311 -1.68779,-1.54546 -1.62547,-2.63212 0.0437,-0.76237 0.40991,-1.47122 0.61485,-2.20678 1.42012,-2.71039 0.46251,-1.24209 2.07036,-3.19233 0.12267,-0.14898 0.1596,-0.41406 0.34588,-0.4639 0.1156,-0.0309 0.0959,0.22503 0.0996,0.34472 0.006,0.21731 -0.12957,0.90689 -0.16933,1.1261 -0.006,0.0257 0.36079,0.1084 0.3666,0.0822 z" /></g></svg>
