<?xml version="1.0" encoding="UTF-8" standalone="no"?>
<!-- Created with Inkscape (http://www.inkscape.org/) -->

<svg
   width="632.07935"
   height="81.341675"
   viewBox="0 0 167.23766 21.52165"
   version="1.1"
   id="svg1"
   xml:space="preserve"
   xmlns="http://www.w3.org/2000/svg"
   xmlns:svg="http://www.w3.org/2000/svg"><defs
     id="defs1" /><g
     id="layer1"
     style="display:inline"
     transform="translate(-285.54773,-435.09036)"><path
       style="display:inline;fill:#fafade;fill-opacity:1;stroke:none;stroke-width:7.14375;stroke-linecap:round;stroke-linejoin:round;stroke-dasharray:none;stroke-opacity:1;paint-order:fill markers stroke"
       id="path100-54"
       d="m 296.45935,439.20148 c 0.41807,0.12255 0.82794,0.27763 1.25416,0.36764 0.88098,0.18603 1.76966,0.33803 2.66186,0.45934 1.55649,0.21164 3.11489,0.42495 4.68157,0.53914 4.44002,0.32364 8.18493,0.29731 12.65994,-0.0214 2.52714,-0.17994 5.04103,-0.51345 7.56153,-0.77015 10.74631,-1.31053 21.35073,-3.67959 32.17259,-4.38819 7.99679,-0.52361 10.07433,-0.25173 18.07927,0.0238 8.67479,0.59455 17.26589,1.96368 25.87802,3.1047 2.77101,0.36714 5.53511,0.79518 8.31554,1.0822 6.69488,0.69112 11.29778,0.80478 18.03418,1.11419 11.58949,0.29522 5.96522,0.18917 16.87256,0.33091 11.0078,0.14388 10.80431,15.71125 -0.20349,15.56737 v 0 c -11.21058,-0.1474 -5.41369,-0.0368 -17.3904,-0.34631 -7.62511,-0.35695 -11.71834,-0.44143 -19.32218,-1.22767 -2.80363,-0.2899 -5.5908,-0.7212 -8.38496,-1.09138 -8.1102,-1.0745 -16.19986,-2.36315 -24.36389,-2.97556 -6.90468,-0.26519 -9.07571,-0.52488 -15.96419,-0.0909 -10.82562,0.68202 -21.42157,3.15603 -32.17963,4.38888 -2.86023,0.27935 -5.71297,0.65032 -8.58063,0.83804 -8.34842,0.54648 -16.86732,0.2874 -25.03987,-1.63652 -0.70004,-0.16481 -1.37435,-0.42429 -2.06153,-0.63643 -10.34619,-3.7615 -5.02661,-18.3932 5.31955,-14.6317 z" /></g></svg>
